<svg width="60" height="60" viewBox="0 0 60 60" fill="none" xmlns="http://www.w3.org/2000/svg">
<path d="M26.25 36.25H18.75C16.393 36.25 15.2145 36.25 14.4822 36.9823C13.75 37.7145 13.75 38.893 13.75 41.25C13.75 43.607 13.75 44.7855 14.4822 45.5177C15.2145 46.25 16.393 46.25 18.75 46.25H26.25C28.607 46.25 29.7855 46.25 30.5177 45.5177C31.25 44.7855 31.25 43.607 31.25 41.25C31.25 38.893 31.25 37.7145 30.5177 36.9823C29.7855 36.25 28.607 36.25 26.25 36.25Z" stroke="#CA8544" stroke-width="3" stroke-linecap="round" stroke-linejoin="round"/>
<path d="M53.75 33.75V21.25C53.75 18.772 53.75 17.5329 53.3652 16.3783C52.9802 15.2237 52.2367 14.2325 50.75 12.25C48.5417 9.30575 47.4378 7.8336 45.854 7.0418C44.2705 6.25 42.4303 6.25 38.75 6.25H21.25C17.5697 6.25 15.7295 6.25 14.1459 7.0418C12.5623 7.8336 11.4582 9.30573 9.25 12.25C7.76318 14.2325 7.01975 15.2237 6.63487 16.3783C6.25 17.5329 6.25 18.772 6.25 21.25V33.75C6.25 43.178 6.25 47.8922 9.17893 50.821C12.1079 53.75 16.8219 53.75 26.25 53.75H33.75C43.178 53.75 47.8922 53.75 50.821 50.821C53.75 47.8922 53.75 43.178 53.75 33.75Z" stroke="#CA8544" stroke-width="3" stroke-linecap="round" stroke-linejoin="round"/>
<path d="M7.5 16.25H52.5" stroke="#CA8544" stroke-width="3" stroke-linecap="round" stroke-linejoin="round"/>
<path d="M36.25 16.25H23.75L26.25 6.25H33.75L36.25 16.25Z" stroke="#CA8544" stroke-width="3" stroke-linecap="round" stroke-linejoin="round"/>
<path d="M36.25 16.25V21.25C36.25 23.607 36.25 24.7855 35.5177 25.5177C34.7855 26.25 33.607 26.25 31.25 26.25H28.75C26.393 26.25 25.2145 26.25 24.4822 25.5177C23.75 24.7855 23.75 23.607 23.75 21.25V16.25" stroke="#CA8544" stroke-width="3" stroke-linecap="round" stroke-linejoin="round"/>
</svg>
