<svg width="60" height="60" viewBox="0 0 60 60" fill="none" xmlns="http://www.w3.org/2000/svg">
<path d="M46.772 8.73835C42.0412 6.38455 36.2523 5 30 5C23.7477 5 17.9588 6.38455 13.2279 8.73835C10.908 9.89265 9.74797 10.4698 8.624 12.2845C7.5 14.0991 7.5 15.8562 7.5 19.3703V28.0927C7.5 42.3012 18.8559 50.201 25.4325 53.5845C27.2668 54.5282 28.1838 55 30 55C31.8162 55 32.7332 54.5282 34.5672 53.5845C41.144 50.201 52.5 42.3012 52.5 28.0927V19.3703C52.5 15.8562 52.5 14.0992 51.376 12.2845C50.252 10.4698 49.092 9.89265 46.772 8.73835Z" stroke="white" stroke-width="3" stroke-linecap="round" stroke-linejoin="round"/>
<path d="M37.5 27.5C37.5 31.642 34.1423 35 30 35C25.8577 35 22.5 31.642 22.5 27.5C22.5 23.3579 25.8577 20 30 20C34.1423 20 37.5 23.3579 37.5 27.5Z" stroke="white" stroke-width="3" stroke-linecap="round" stroke-linejoin="round"/>
</svg>
