<svg width="60" height="60" viewBox="0 0 60 60" fill="none" xmlns="http://www.w3.org/2000/svg">
<path d="M43.694 27.5003C43.7125 27.5 43.7313 27.5 43.75 27.5C49.9633 27.5 55 32.5367 55 38.75C55 44.9633 49.9633 50 43.75 50H17.5C10.5964 50 5 44.4035 5 37.5C5 31.0008 9.95995 25.6603 16.3011 25.0568M43.694 27.5003C43.731 27.0885 43.75 26.6715 43.75 26.25C43.75 18.6561 37.594 12.5 30 12.5C22.8081 12.5 16.9058 18.0216 16.3011 25.0568M43.694 27.5003C43.4383 30.3363 42.3215 32.924 40.607 35M16.3011 25.0568C16.6957 25.0193 17.0956 25 17.5 25C20.3146 25 22.9118 25.9302 25.0012 27.5" stroke="white" stroke-width="3" stroke-linecap="round" stroke-linejoin="round"/>
<path d="M22.5 14.1367C20.7638 11.6363 17.8772 10 14.6097 10C9.3024 10 5 14.3169 5 19.642C5 22.8839 6.59458 25.752 9.0397 27.5" stroke="white" stroke-width="3"/>
</svg>
