<svg width="60" height="60" viewBox="0 0 60 60" fill="none" xmlns="http://www.w3.org/2000/svg">
<path d="M21.5703 31.684H20.4229C16.7136 31.684 14.8589 31.684 14.0684 30.461C13.2778 29.2382 14.0311 27.5345 15.5376 24.1271L20.0667 13.8831C21.4364 10.785 22.1213 9.23595 23.4499 8.36797C24.7785 7.5 26.4647 7.5 29.8375 7.5H35.061C39.158 7.5 41.2065 7.5 41.979 8.83838C42.7517 10.1768 41.7355 11.9647 39.7027 15.5406L37.023 20.2547C36.0125 22.0324 35.5072 22.9212 35.5142 23.6488C35.5235 24.5944 36.0262 25.4655 36.8385 25.9425C37.4635 26.3097 38.4817 26.3098 40.5185 26.3098C43.0932 26.3098 44.3807 26.3097 45.0512 26.7555C45.9222 27.3345 46.3782 28.3705 46.2185 29.408C46.0955 30.2065 45.2295 31.164 43.4975 33.0792L29.6597 48.3808C26.9417 51.3863 25.5827 52.889 24.6702 52.4135C23.7576 51.9378 24.1958 49.9555 25.0722 45.9905L26.7892 38.224C27.4565 35.205 27.7902 33.6955 26.9877 32.6898C26.1852 31.684 24.6469 31.684 21.5703 31.684Z" stroke="#CA8544" stroke-width="4" stroke-linejoin="round"/>
</svg>
